<svg version="1" xmlns="http://www.w3.org/2000/svg" width="346.667" height="346.667" viewBox="0 0 260.000000 260.000000"><path d="M0 130v130h260V0H0v130zm77.6-25c5.6 19.5 11.3 40.4 12.7 46.5 1.4 6 2.6 10.8 2.7 10.5 2.3-10.4 9.8-37.6 17-61.8l9.3-31.2H153v53.3l9.3-13.9c5.1-7.6 13.2-19.6 18.1-26.7l8.7-12.7h34.1l-3 3.7c-1.6 2.1-10.2 13.2-19.2 24.8-8.9 11.5-16.6 21.5-17.1 22-.5.7 7.8 15.3 20.2 35.5l20.9 34.5-15.7.3c-8.6.1-16-.1-16.5-.6-.4-.4-7.2-12.1-15.1-26L163.3 138l-5.1 6.4-5.2 6.4V190h-27l-.2-25.8-.3-25.7-8.6 25.5-8.6 25.5H75.5L56.3 130C45.8 97.3 37.1 70.2 37.1 69.7c-.1-.4 6.7-.6 15.1-.5l15.2.3L77.6 105z"/></svg>